<svg width="121" height="58" viewBox="0 0 121 58" fill="none" xmlns="http://www.w3.org/2000/svg">
<g clip-path="url(#clip0_26_46)">
<path fill-rule="evenodd" clip-rule="evenodd" d="M16.5011 38.9379C16.5011 42.5876 14.6559 44.7398 12.6898 47.2407C11.264 49.054 8.27199 51.6305 6.40148 53.1996C5.48085 53.9706 0.226256 57.6629 0 58H14.2229C15.0597 57.9729 15.6331 57.9322 15.7891 57.8741C17.6557 57.1961 22.0424 54.3154 23.552 52.7986C25.3094 51.0319 26.6358 49.7591 27.8919 47.4616C28.7091 45.968 29.3255 44.8309 29.9145 43.0777C30.1973 42.2389 30.3865 41.5337 30.6128 40.6329C31.0965 38.717 30.8937 39.1607 30.8937 37.8898V0H16.5011V38.9379Z" fill="white"/>
<path fill-rule="evenodd" clip-rule="evenodd" d="M82.3882 19.5269C82.3882 22.7698 82.5559 24.9724 83.6599 28.0274C84.3172 29.8464 85.3432 31.6655 86.5739 33.1533C88.4444 35.414 89.9814 36.6015 92.4468 38.0137C95.7743 39.9199 101.107 41.2624 105.326 41.2624C109.008 41.2624 109.8 41.3031 113.604 40.6503L118.784 39.4027V19.9919H95.6124V25.3386H106.73V36.9618C106.73 37.4442 106.301 37.295 105.833 37.3493C89.4899 39.2419 78.9339 20.3444 90.8435 8.51391C93.8141 5.56354 98.3841 3.37063 102.751 3.37063C106.284 3.37063 108.632 3.55853 111.842 5.15092C112.381 5.41825 112.703 5.5926 113.204 5.89093C114.185 6.47403 114.901 6.95446 115.771 7.7584C115.981 7.95406 116.822 8.71732 117.029 8.71732H120.891C120.879 8.20783 120.795 8.14584 120.159 7.46782C117.481 4.61431 115.501 2.97543 111.48 1.4431C110.044 0.89681 108.086 0.40476 106.496 0.232348L103.588 0.0153809C99.0979 0.276904 95.355 1.14671 91.5691 3.65346C87.2059 6.54377 84.2099 10.8095 82.9265 15.8772C82.671 16.8807 82.3882 18.3607 82.3882 19.5269Z" fill="white"/>
<path fill-rule="evenodd" clip-rule="evenodd" d="M41.4282 41.3788H54.6525V0H41.4282V41.3788Z" fill="white"/>
<path fill-rule="evenodd" clip-rule="evenodd" d="M73.4941 29.7554V41.4949H78.0582C78.0582 35.9293 78.3215 30.8616 77.5257 25.4025C76.7689 20.2089 75.2944 14.9222 72.4896 10.7611C71.7562 9.67433 71.2783 8.9595 70.3636 7.9909C68.7603 6.29196 68.2239 5.65656 66.0042 4.18428C64.0186 2.86698 61.6547 1.78602 59.2673 1.11187C58.6041 0.923962 57.1822 0.480341 56.5249 0.464844C56.7278 0.767048 56.9677 0.863909 57.2953 1.09444C59.1795 2.42336 61.1183 4.15522 62.7567 5.78248C67.9099 10.8986 71.3739 17.5394 72.8017 24.6315C73.0825 26.0282 73.4941 28.1398 73.4941 29.7554Z" fill="white"/>
<path fill-rule="evenodd" clip-rule="evenodd" d="M120.891 10.9259C120.891 11.2146 121.078 10.955 120.963 10.9259C120.961 10.9259 120.891 10.5966 120.891 10.9259Z" fill="white"/>
</g>
<defs>
<clipPath id="clip0_26_46">
<rect width="121" height="58" fill="white"/>
</clipPath>
</defs>
</svg>
